<svg preserveAspectRatio="none" overflow="visible" style="display: block;" width="22" height="22" viewBox="0 0 22 22" fill="none" xmlns="http://www.w3.org/2000/svg">
<g id="Icon / Instagram">
<path id="Vector" d="M7.5625 2.29167C4.6596 2.29167 2.29167 4.6596 2.29167 7.5625V14.4375C2.29167 17.34 4.65951 19.7083 7.5625 19.7083H14.4375C17.3401 19.7083 19.7083 17.3401 19.7083 14.4375V7.5625C19.7083 4.65951 17.34 2.29167 14.4375 2.29167H7.5625ZM7.5625 3.66667H14.4375C16.5968 3.66667 18.3333 5.40274 18.3333 7.5625V14.4375C18.3333 16.5967 16.5967 18.3333 14.4375 18.3333H7.5625C5.40274 18.3333 3.66667 16.5968 3.66667 14.4375V7.5625C3.66667 5.40265 5.40265 3.66667 7.5625 3.66667ZM15.5833 5.5C15.0769 5.5 14.6667 5.91021 14.6667 6.41667C14.6667 6.92312 15.0769 7.33333 15.5833 7.33333C16.0898 7.33333 16.5 6.92312 16.5 6.41667C16.5 5.91021 16.0898 5.5 15.5833 5.5ZM11 6.41667C8.47696 6.41667 6.41667 8.47696 6.41667 11C6.41667 13.523 8.47696 15.5833 11 15.5833C13.523 15.5833 15.5833 13.523 15.5833 11C15.5833 8.47696 13.523 6.41667 11 6.41667ZM11 7.79167C12.7798 7.79167 14.2083 9.22021 14.2083 11C14.2083 12.7798 12.7798 14.2083 11 14.2083C9.22021 14.2083 7.79167 12.7798 7.79167 11C7.79167 9.22021 9.22021 7.79167 11 7.79167Z" fill="white"/>
</g>
</svg>
